<mxfile host="app.diagrams.net" modified="2023-10-29T16:19:30.445Z" agent="Mozilla/5.0 (Windows NT 10.0; Win64; x64) AppleWebKit/537.36 (KHTML, like Gecko) Chrome/118.0.0.0 Safari/537.36" etag="sUAp9xZJHhYxcLwF7q9q" version="22.0.8" type="device">
  <diagram name="Page-1" id="rAOZFRbp2_Z1uwqswD2k">
    <mxGraphModel dx="4995" dy="-1449" grid="0" gridSize="10" guides="1" tooltips="1" connect="1" arrows="1" fold="1" page="1" pageScale="1" pageWidth="827" pageHeight="1169" math="0" shadow="0">
      <root>
        <mxCell id="0" />
        <mxCell id="1" parent="0" />
        <mxCell id="D3oE_YceaGLnGX0G64rv-2" value="Azure Cloud" style="sketch=0;outlineConnect=0;gradientColor=none;html=1;whiteSpace=wrap;fontSize=12;fontStyle=0;shape=mxgraph.aws4.group;grIcon=mxgraph.aws4.group_aws_cloud;strokeColor=#AAB7B8;fillColor=none;verticalAlign=top;align=left;spacingLeft=30;fontColor=#AAB7B8;dashed=0;" vertex="1" parent="1">
          <mxGeometry x="-2738" y="3054" width="1033" height="818" as="geometry" />
        </mxCell>
        <mxCell id="D3oE_YceaGLnGX0G64rv-3" value="&lt;a data-bind=&quot;fxclick: onNameClick, text: name&quot; aria-disabled=&quot;false&quot; tabindex=&quot;0&quot; href=&quot;https://portal.azure.com/#&quot; class=&quot;fxs-fxclick&quot; style=&quot;font-size: 13px; text-decoration-line: none; cursor: pointer; font-family: az_ea_font, &amp;quot;Segoe UI&amp;quot;, az_font, system-ui, -apple-system, BlinkMacSystemFont, Roboto, Oxygen, Ubuntu, Cantarell, &amp;quot;Open Sans&amp;quot;, &amp;quot;Helvetica Neue&amp;quot;, sans-serif; outline: none !important; background-color: rgb(255, 255, 255);&quot;&gt;&lt;font color=&quot;#000000&quot;&gt;Azure for Students&lt;/font&gt;&lt;/a&gt;" style="points=[[0,0],[0.25,0],[0.5,0],[0.75,0],[1,0],[1,0.25],[1,0.5],[1,0.75],[1,1],[0.75,1],[0.5,1],[0.25,1],[0,1],[0,0.75],[0,0.5],[0,0.25]];outlineConnect=0;gradientColor=none;html=1;whiteSpace=wrap;fontSize=12;fontStyle=0;container=1;pointerEvents=0;collapsible=0;recursiveResize=0;shape=mxgraph.aws4.group;grIcon=mxgraph.aws4.group_aws_cloud;strokeColor=#232F3E;fillColor=none;verticalAlign=top;align=left;spacingLeft=30;fontColor=#FFFFFF;dashed=0;" vertex="1" parent="1">
          <mxGeometry x="-2648" y="3133" width="889" height="675" as="geometry" />
        </mxCell>
        <mxCell id="D3oE_YceaGLnGX0G64rv-4" value="" style="rounded=0;whiteSpace=wrap;html=1;" vertex="1" parent="D3oE_YceaGLnGX0G64rv-3">
          <mxGeometry x="538" y="181" width="303" height="398" as="geometry" />
        </mxCell>
        <mxCell id="D3oE_YceaGLnGX0G64rv-5" value="Azure resources group&lt;br&gt;For Paas" style="image;aspect=fixed;html=1;points=[];align=center;fontSize=12;image=img/lib/azure2/general/Resource_Groups.svg;" vertex="1" parent="D3oE_YceaGLnGX0G64rv-3">
          <mxGeometry x="575" y="151" width="68" height="64" as="geometry" />
        </mxCell>
        <mxCell id="D3oE_YceaGLnGX0G64rv-6" style="edgeStyle=orthogonalEdgeStyle;rounded=0;orthogonalLoop=1;jettySize=auto;html=1;" edge="1" parent="D3oE_YceaGLnGX0G64rv-3" source="D3oE_YceaGLnGX0G64rv-7" target="D3oE_YceaGLnGX0G64rv-9">
          <mxGeometry relative="1" as="geometry">
            <Array as="points">
              <mxPoint x="688" y="224" />
              <mxPoint x="688" y="315" />
            </Array>
          </mxGeometry>
        </mxCell>
        <mxCell id="D3oE_YceaGLnGX0G64rv-7" value="Azure Maneged Identity" style="image;aspect=fixed;html=1;points=[];align=center;fontSize=12;image=img/lib/azure2/identity/Managed_Identities.svg;" vertex="1" parent="D3oE_YceaGLnGX0G64rv-3">
          <mxGeometry x="729" y="195" width="68" height="66" as="geometry" />
        </mxCell>
        <mxCell id="D3oE_YceaGLnGX0G64rv-8" value="" style="rounded=0;whiteSpace=wrap;html=1;" vertex="1" parent="D3oE_YceaGLnGX0G64rv-3">
          <mxGeometry x="559" y="339" width="185" height="214" as="geometry" />
        </mxCell>
        <mxCell id="D3oE_YceaGLnGX0G64rv-9" value="Azure Wep Apps" style="image;sketch=0;aspect=fixed;html=1;points=[];align=center;fontSize=12;image=img/lib/mscae/App_Services.svg;labelPosition=center;verticalLabelPosition=top;verticalAlign=bottom;" vertex="1" parent="D3oE_YceaGLnGX0G64rv-3">
          <mxGeometry x="575" y="311" width="50" height="50" as="geometry" />
        </mxCell>
        <mxCell id="D3oE_YceaGLnGX0G64rv-10" value="Sample App Docker Container" style="shape=image;html=1;verticalAlign=top;verticalLabelPosition=bottom;labelBackgroundColor=#ffffff;imageAspect=0;aspect=fixed;image=https://cdn1.iconfinder.com/data/icons/unicons-line-vol-3/24/docker-128.png" vertex="1" parent="D3oE_YceaGLnGX0G64rv-3">
          <mxGeometry x="587.5" y="377" width="128" height="128" as="geometry" />
        </mxCell>
        <mxCell id="D3oE_YceaGLnGX0G64rv-11" value="" style="rounded=0;whiteSpace=wrap;html=1;" vertex="1" parent="1">
          <mxGeometry x="-2617" y="3204" width="209" height="219" as="geometry" />
        </mxCell>
        <mxCell id="D3oE_YceaGLnGX0G64rv-12" value="Azure resources group&lt;br&gt;For Container Registry" style="image;aspect=fixed;html=1;points=[];align=center;fontSize=12;image=img/lib/azure2/general/Resource_Groups.svg;" vertex="1" parent="1">
          <mxGeometry x="-2580" y="3174" width="68" height="64" as="geometry" />
        </mxCell>
        <mxCell id="D3oE_YceaGLnGX0G64rv-13" value="Azure Container Registry&amp;nbsp;" style="image;aspect=fixed;html=1;points=[];align=center;fontSize=12;image=img/lib/azure2/containers/Container_Registries.svg;" vertex="1" parent="1">
          <mxGeometry x="-2544" y="3305" width="68" height="61" as="geometry" />
        </mxCell>
        <mxCell id="D3oE_YceaGLnGX0G64rv-14" value="" style="rounded=0;whiteSpace=wrap;html=1;" vertex="1" parent="1">
          <mxGeometry x="-2616.5" y="3561" width="213" height="219" as="geometry" />
        </mxCell>
        <mxCell id="D3oE_YceaGLnGX0G64rv-15" value="Azure resources group&lt;br&gt;For MySQL Database Server" style="image;aspect=fixed;html=1;points=[];align=center;fontSize=12;image=img/lib/azure2/general/Resource_Groups.svg;" vertex="1" parent="1">
          <mxGeometry x="-2564.5" y="3532" width="68" height="64" as="geometry" />
        </mxCell>
        <mxCell id="D3oE_YceaGLnGX0G64rv-16" value="Azure Database Server&lt;br&gt;For Paas" style="image;aspect=fixed;html=1;points=[];align=center;fontSize=12;image=img/lib/azure2/databases/Azure_Database_MySQL_Server.svg;" vertex="1" parent="1">
          <mxGeometry x="-2528.5" y="3661" width="48" height="64" as="geometry" />
        </mxCell>
        <mxCell id="D3oE_YceaGLnGX0G64rv-17" style="edgeStyle=orthogonalEdgeStyle;rounded=0;orthogonalLoop=1;jettySize=auto;html=1;" edge="1" parent="1" source="D3oE_YceaGLnGX0G64rv-10" target="D3oE_YceaGLnGX0G64rv-16">
          <mxGeometry relative="1" as="geometry">
            <Array as="points">
              <mxPoint x="-2215" y="3582" />
              <mxPoint x="-2215" y="3703" />
            </Array>
          </mxGeometry>
        </mxCell>
        <mxCell id="D3oE_YceaGLnGX0G64rv-18" value="Database DNS&lt;br&gt;Port 3306" style="edgeLabel;html=1;align=center;verticalAlign=middle;resizable=0;points=[];" vertex="1" connectable="0" parent="D3oE_YceaGLnGX0G64rv-17">
          <mxGeometry x="-0.3952" y="-1" relative="1" as="geometry">
            <mxPoint x="14" y="-15" as="offset" />
          </mxGeometry>
        </mxCell>
        <mxCell id="D3oE_YceaGLnGX0G64rv-19" style="edgeStyle=orthogonalEdgeStyle;rounded=0;orthogonalLoop=1;jettySize=auto;html=1;" edge="1" parent="1" source="D3oE_YceaGLnGX0G64rv-9" target="D3oE_YceaGLnGX0G64rv-13">
          <mxGeometry relative="1" as="geometry">
            <Array as="points">
              <mxPoint x="-2221" y="3448" />
              <mxPoint x="-2221" y="3338" />
            </Array>
          </mxGeometry>
        </mxCell>
        <mxCell id="D3oE_YceaGLnGX0G64rv-20" style="edgeStyle=orthogonalEdgeStyle;rounded=0;orthogonalLoop=1;jettySize=auto;html=1;" edge="1" parent="1" source="D3oE_YceaGLnGX0G64rv-22" target="D3oE_YceaGLnGX0G64rv-10">
          <mxGeometry relative="1" as="geometry" />
        </mxCell>
        <mxCell id="D3oE_YceaGLnGX0G64rv-21" value="Azure Wep Apps URL&lt;br&gt;Port 80" style="edgeLabel;html=1;align=center;verticalAlign=middle;resizable=0;points=[];" vertex="1" connectable="0" parent="D3oE_YceaGLnGX0G64rv-20">
          <mxGeometry x="-0.3647" y="1" relative="1" as="geometry">
            <mxPoint x="20" y="-18" as="offset" />
          </mxGeometry>
        </mxCell>
        <mxCell id="D3oE_YceaGLnGX0G64rv-22" value="Users" style="points=[[0.35,0,0],[0.98,0.51,0],[1,0.71,0],[0.67,1,0],[0,0.795,0],[0,0.65,0]];verticalLabelPosition=bottom;sketch=0;html=1;verticalAlign=top;aspect=fixed;align=center;pointerEvents=1;shape=mxgraph.cisco19.user;fillColor=#005073;strokeColor=none;" vertex="1" parent="1">
          <mxGeometry x="-1531" y="3549" width="50" height="50" as="geometry" />
        </mxCell>
      </root>
    </mxGraphModel>
  </diagram>
</mxfile>
